<?xml version="1.0" encoding="UTF-8" standalone="no"?>
<svg
   xmlns:dc="http://purl.org/dc/elements/1.1/"
   xmlns:cc="http://creativecommons.org/ns#"
   xmlns:rdf="http://www.w3.org/1999/02/22-rdf-syntax-ns#"
   xmlns:svg="http://www.w3.org/2000/svg"
   xmlns="http://www.w3.org/2000/svg"
   xmlns:sodipodi="http://sodipodi.sourceforge.net/DTD/sodipodi-0.dtd"
   xmlns:inkscape="http://www.inkscape.org/namespaces/inkscape"
   preserveAspectRatio="xMidYMid"
   width="360"
   height="360"
   viewBox="0 0 86.401382 86.401382"
   id="svg2"
   version="1.1"
   inkscape:version="0.91 r13725"
   sodipodi:docname="google.svg">
  <metadata
     id="metadata16">
    <rdf:RDF>
      <cc:Work
         rdf:about="">
        <dc:format>image/svg+xml</dc:format>
        <dc:type
           rdf:resource="http://purl.org/dc/dcmitype/StillImage" />
        <dc:title></dc:title>
      </cc:Work>
    </rdf:RDF>
  </metadata>
  <sodipodi:namedview
     pagecolor="#dcdcdc"
     bordercolor="#666666"
     borderopacity="0"
     objecttolerance="10"
     gridtolerance="10"
     guidetolerance="10"
     inkscape:pageopacity="1"
     inkscape:pageshadow="2"
     inkscape:window-width="1920"
     inkscape:window-height="1016"
     id="namedview14"
     showgrid="false"
     fit-margin-top="0"
     fit-margin-left="0"
     fit-margin-right="0"
     fit-margin-bottom="0"
     inkscape:zoom="0.47200755"
     inkscape:cx="-52.625798"
     inkscape:cy="275.75881"
     inkscape:window-x="0"
     inkscape:window-y="27"
     inkscape:window-maximized="1"
     inkscape:current-layer="svg2" />
  <defs
     id="defs4">
    <style
       id="style6">
      .cls-1 {
        fill: #ff3d34;
      }

      .cls-2 {
        fill: #fff;
        fill-rule: evenodd;
      }
    </style>
    <filter
       style="color-interpolation-filters:sRGB"
       inkscape:label="Drop Shadow"
       id="filter4218">
      <feFlood
         flood-opacity="0.294118"
         flood-color="rgb(0,0,0)"
         result="flood"
         id="feFlood4220" />
      <feComposite
         in="flood"
         in2="SourceGraphic"
         operator="in"
         result="composite1"
         id="feComposite4222" />
      <feGaussianBlur
         in="composite1"
         stdDeviation="3"
         result="blur"
         id="feGaussianBlur4224" />
      <feOffset
         dx="1"
         dy="1"
         result="offset"
         id="feOffset4226" />
      <feComposite
         in="SourceGraphic"
         in2="offset"
         operator="over"
         result="composite2"
         id="feComposite4228" />
    </filter>
  </defs>
  <path
     style="fill:#000000;fill-opacity:1;fill-rule:evenodd"
     inkscape:connector-curvature="0"
     id="path12"
     class="cls-2"
     d="m 34.076705,13.901266 c -1.021696,-2.019632 -2.363078,-3.6591 -4.032785,-4.9248792 -1.699947,-1.196658 -3.656938,-1.831709 -5.868814,-1.8986719 -2.924687,0.06696 -5.356884,1.2139409 -7.296597,3.4366171 -1.635145,2.326356 -2.414918,4.927039 -2.347957,7.799885 0,3.795181 1.142658,7.748044 3.427975,11.849949 1.108098,1.918111 2.535881,3.542456 4.283349,4.875198 1.749628,1.334901 3.749819,2.000192 5.998415,2.000192 2.842605,-0.10152 5.210003,-1.095138 7.104354,-2.976529 0.913694,-1.332739 1.501223,-2.700041 1.762589,-4.104065 0.15552,-1.401861 0.235443,-2.581241 0.235443,-3.538135 0,-4.140788 -1.088658,-8.311814 -3.265972,-12.519561 z M 25.09312,54.034707 c -2.235636,0.306725 -4.520952,0.799212 -6.855948,1.483945 -0.552969,0.205201 -1.326262,0.511927 -2.322037,0.922334 -0.995777,0.442808 -2.010993,1.075696 -3.041329,1.894349 -0.997936,0.853215 -1.84035,1.911631 -2.527241,3.175252 -0.7905721,1.33274 -1.1858586,2.935487 -1.1858586,4.814716 0,3.68502 1.7193876,6.724188 5.1560026,9.115346 3.263812,2.388998 7.732923,3.618058 13.405175,3.68718 5.086881,-0.06912 8.970622,-1.1621 11.653386,-3.278932 2.611481,-2.082275 3.916142,-4.762878 3.916142,-8.03965 0,-2.663322 -0.892094,-4.9832 -2.680603,-6.963951 -1.89003,-1.87707 -4.844957,-4.181826 -8.866942,-6.914271 -0.689051,-0.06696 -1.494744,-0.10152 -2.423558,-0.10152 -0.550809,-0.06912 -1.959153,0 -4.227189,0.205202 z M 39.120386,7.3844418 c 0.680411,0.408247 1.440742,1.008735 2.289636,1.792828 0.812172,0.818652 1.609225,1.8252292 2.391158,3.0197302 0.743053,1.127538 1.406181,2.458119 1.982912,3.993902 0.473047,1.535785 0.710651,3.328614 0.710651,5.376327 -0.0648,3.7563 -0.918014,6.758748 -2.557481,9.011664 -0.803533,1.092977 -1.656745,2.099553 -2.55748,3.021887 -0.995776,0.920177 -2.058514,1.859791 -3.183892,2.814525 -0.643689,0.650171 -1.2377,1.382424 -1.784187,2.201076 -0.643691,0.853213 -0.965537,1.844669 -0.965537,2.972207 0,1.090818 0.330486,1.995873 0.989297,2.710844 0.561608,0.68473 1.105938,1.280899 1.635145,1.792829 l 3.661259,2.918206 c 2.274516,1.812269 4.270389,3.805982 5.987616,5.991936 1.615705,2.218356 2.455958,5.119281 2.52292,8.702779 0,5.086881 -2.309076,9.592713 -6.927231,13.519656 C 38.524215,81.285703 31.612105,83.38525 22.581001,83.521332 15.02088,83.45221 9.37239,81.886192 5.6463302,78.818943 1.8835502,75.956898 0,72.533242 0,68.547979 0,66.603949 0.61128977,64.441754 1.8360294,62.057074 3.0218883,59.670237 5.1754426,57.575004 8.2858927,55.771376 11.782988,53.827345 15.457207,52.535643 19.304229,51.887632 23.11453,51.341145 26.281141,51.03442 28.79758,50.967458 28.019967,49.971682 27.326596,48.906785 26.717468,47.774927 26.006815,46.677629 25.65257,45.35569 25.65257,43.811264 c 0,-0.926654 0.13392,-1.699947 0.406087,-2.317718 0.235444,-0.652328 0.455767,-1.252819 0.658811,-1.801469 -1.2269,0.13824 -2.382518,0.205204 -3.469017,0.205204 C 17.50276,39.830321 13.122209,38.072052 10.111122,34.624637 6.9574711,31.416986 5.3784858,27.680126 5.3784858,23.411897 c 0,-5.151683 2.2356361,-9.828156 6.7047472,-14.0272632 3.067249,-2.4559596 6.255459,-4.0608648 9.564633,-4.8103985 3.274613,-0.648008 6.344021,-0.9741745 9.208227,-0.9741745 l 21.589546,0 -6.668027,3.784381 -6.657226,0 z m 47.280992,35.1308012 -0.27648,0 0,0.0043 -11.029141,0 0,10.759133 -0.455767,0 0,0.358565 -6.458501,0 0,-11.117698 -11.482744,0 0,-6.25546 0.900735,0 0,-0.04752 10.582009,0 0,-11.072338 6.458501,0 0,0.04752 0.455767,0 0,11.024817 11.305621,0 0,6.298659 z" />
</svg>
