<?xml version="1.0" encoding="UTF-8" standalone="no"?>
<!-- Created with Inkscape (http://www.inkscape.org/) -->

<svg
   xmlns:dc="http://purl.org/dc/elements/1.1/"
   xmlns:cc="http://creativecommons.org/ns#"
   xmlns:rdf="http://www.w3.org/1999/02/22-rdf-syntax-ns#"
   xmlns:svg="http://www.w3.org/2000/svg"
   xmlns="http://www.w3.org/2000/svg"
   xmlns:sodipodi="http://sodipodi.sourceforge.net/DTD/sodipodi-0.dtd"
   xmlns:inkscape="http://www.inkscape.org/namespaces/inkscape"
   version="1.0"
   width="30"
   height="22"
   id="svg3307"
   inkscape:version="0.91 r13725"
   sodipodi:docname="mathml.svg">
  <metadata
     id="metadata11">
    <rdf:RDF>
      <cc:Work
         rdf:about="">
        <dc:format>image/svg+xml</dc:format>
        <dc:type
           rdf:resource="http://purl.org/dc/dcmitype/StillImage" />
      </cc:Work>
    </rdf:RDF>
  </metadata>
  <sodipodi:namedview
     pagecolor="#ffffff"
     bordercolor="#666666"
     borderopacity="1"
     objecttolerance="10"
     gridtolerance="10"
     guidetolerance="10"
     inkscape:pageopacity="0"
     inkscape:pageshadow="2"
     inkscape:window-width="1920"
     inkscape:window-height="1016"
     id="namedview9"
     showgrid="false"
     inkscape:zoom="10.133333"
     inkscape:cx="15.197368"
     inkscape:cy="11"
     inkscape:window-x="0"
     inkscape:window-y="27"
     inkscape:window-maximized="1"
     inkscape:current-layer="layer1" />
  <defs
     id="defs3309" />
  <g
     transform="translate(-233.57143,-369.93362)"
     id="layer1">
    <path
       inkscape:connector-curvature="0"
       d="m 246.71386,388.21529 -1.36334,3.17196 -9.66901,0 0,-0.27771 4.4131,-4.37601 c 2.08259,-2.16126 3.15692,-4.16802 3.223,-6.02028 -1e-5,-1.29685 -0.52909,-2.23852 -1.58729,-2.82502 -0.56188,-0.29298 -1.19817,-0.43949 -1.90884,-0.4395 -1.09047,10e-6 -1.94994,0.39359 -2.57839,1.18074 -0.33038,0.43198 -0.66907,1.04177 -1.01608,1.8294 l -0.52051,-0.11594 c 0.33037,-1.31239 0.76841,-2.27715 1.31415,-2.89426 0.0822,-0.0928 0.173,-0.18558 0.27236,-0.2784 0.9422,-0.95673 2.13228,-1.43511 3.57027,-1.43512 1.52021,1e-5 2.72669,0.517 3.61946,1.551 l 0.44637,0.62534 c 0.34701,0.5865 0.52053,1.22716 0.52053,1.92197 0,1.69775 -0.99188,3.53469 -2.97562,5.51082 -0.0661,0.0617 -0.13214,0.13097 -0.1982,0.20775 l -4.16495,4.0757 5.92548,0 c 0.66124,0 1.15705,-0.1545 1.48743,-0.46354 0.21486,-0.18512 0.50412,-0.54006 0.8678,-1.06484 l 0.32228,0.11593 z"
       style="font-style:normal;font-weight:normal;font-size:19.89183044px;font-family:FreeSerif;text-align:center;text-anchor:middle;fill:#000000;fill-opacity:1;stroke:none;stroke-width:1px;stroke-linecap:butt;stroke-linejoin:miter;stroke-opacity:1"
       id="text3325" />
    <path
       inkscape:connector-curvature="0"
       d="m 260.0855,375.92181 c 0.80725,1e-5 1.44912,0.38771 1.92559,1.16311 0.42296,0.68208 0.63446,1.53648 0.63447,2.5632 -10e-6,1.05521 -0.23074,1.9382 -0.69219,2.64897 -0.13068,0.20114 -0.26897,0.36635 -0.41488,0.49561 -0.4075,0.37336 -0.90721,0.56003 -1.49908,0.56003 -0.6841,0 -1.24527,-0.24408 -1.68349,-0.73224 -0.42273,-0.4667 -0.70719,-1.17758 -0.85335,-2.13266 -0.0462,-0.30871 -0.0693,-0.6102 -0.0693,-0.90446 0,-1.01225 0.22686,-1.87739 0.68058,-2.5954 0.13065,-0.20114 0.27282,-0.36985 0.4265,-0.50613 0.42272,-0.37336 0.93779,-0.56002 1.54516,-0.56003 l 0,0 z m -0.0345,0.28001 c -0.94567,10e-6 -1.44924,1.03385 -1.5107,3.10153 -1e-5,0.12204 -1e-5,0.2477 0,0.37698 -1e-5,2.26159 0.4997,3.39239 1.49908,3.39239 0.9994,0 1.49907,-1.13441 1.49908,-3.40324 -1e-5,-2.04621 -0.39587,-3.18775 -1.18764,-3.42461 l -0.28821,-0.043 -0.0115,0 z"
       style="font-style:normal;font-weight:normal;font-size:9.25208569px;font-family:FreeSerif;text-align:center;text-anchor:middle;fill:#000000;fill-opacity:1;stroke:none;stroke-width:1px;stroke-linecap:butt;stroke-linejoin:miter;stroke-opacity:1"
       id="text3329" />
    <path
       inkscape:connector-curvature="0"
       d="m 250.17852,371.89641 3.24261,3.83699 c 0.30565,-0.76095 0.59424,-1.35285 0.8657,-1.77575 0.11332,-0.15837 0.25472,-0.35386 0.42432,-0.58644 -0.53191,0 -0.84309,-0.0109 -0.93357,-0.0319 -0.39617,-0.0738 -0.6621,-0.29577 -0.79784,-0.66577 -0.0567,-0.15871 -0.0849,-0.35419 -0.0849,-0.58645 -1e-5,-0.29611 0.0452,-0.60803 0.13573,-0.93578 0.0905,-0.30643 0.23193,-0.50724 0.4243,-0.6024 l 0.39063,-0.17418 -0.0336,0.41223 c 0.0453,0.29581 0.28855,0.44903 0.72997,0.45967 l 0.93356,0.0314 c 0.50908,0.0109 0.8372,0.25388 0.98434,0.72965 l 0.0513,0.20613 -0.0513,1.34754 c -0.28288,-0.0845 -0.44693,-0.12676 -0.49217,-0.12677 -0.10197,1e-5 -0.19809,0.0212 -0.28857,0.0635 -0.12438,0.0636 -0.24886,0.17452 -0.37354,0.33289 -0.31671,0.40161 -0.58836,0.87724 -0.81492,1.42689 -0.10196,0.24323 -0.15284,0.50225 -0.15283,0.77708 -1e-5,0.17968 0.0227,0.34354 0.0679,0.4916 l 0.16994,0.31692 c 0.0228,0.0316 0.0453,0.058 0.0679,0.0793 l 0.84912,0.96722 c 0.3958,0.45451 0.64464,0.7716 0.74655,0.95127 0.0342,0.0632 0.0625,0.12661 0.0849,0.19015 0.0795,0.16904 0.11914,0.34871 0.11914,0.53903 -1e-5,0.11645 -0.0172,0.23273 -0.0514,0.34886 -0.12437,0.4545 -0.35628,0.81385 -0.69577,1.07803 -0.068,0.0529 -0.10777,0.0847 -0.11913,0.0953 -0.14713,-0.53901 -0.70736,-1.33173 -1.68063,-2.37816 l -3.27631,-3.56749 -0.54292,0.58645 c -0.14714,0.16936 -0.22642,0.42305 -0.2378,0.76111 -1e-5,0.24322 0.0565,0.45999 0.16993,0.6503 0.0225,0.0423 0.0451,0.0791 0.0679,0.11082 l 0.89937,1.31608 c 0.3509,0.50742 0.52636,0.90902 0.52636,1.20482 0,0.0739 -0.005,0.13726 -0.0172,0.19015 l -0.18649,0.84046 -2.97115,0 0,-0.58643 0.4414,-0.0479 c 0.30567,-0.0423 0.46419,-0.16903 0.47558,-0.38031 l -0.0506,-0.22209 -0.78124,-1.45883 c -0.10187,-0.25355 -0.15284,-0.48079 -0.15283,-0.68177 -1e-5,-0.0423 -1e-5,-0.0791 0,-0.11081 0.0342,-0.39096 0.18702,-0.79788 0.45848,-1.22077 0.0115,-0.0213 0.0228,-0.0424 0.0342,-0.0635 0.14714,-0.23256 0.50926,-0.61837 1.0864,-1.15739 0.11332,-0.0951 0.20947,-0.17983 0.28856,-0.25402 l -1.52779,-1.71188 c -0.18134,-0.19031 -0.272,-0.46515 -0.272,-0.8245 0,-0.23256 0.0398,-0.43868 0.11915,-0.61837 0.12439,-0.31707 0.39598,-0.61837 0.81493,-0.90385 0.0453,-0.0316 0.0793,-0.058 0.10166,-0.0793 0.1813,0.52838 0.45296,0.99868 0.8149,1.41092 l 0,0 z"
       style="font-style:normal;font-weight:normal;font-size:13.62117767px;font-family:FreeSerif;text-align:center;text-anchor:middle;fill:#000000;fill-opacity:1;stroke:none;stroke-width:1px;stroke-linecap:butt;stroke-linejoin:miter;stroke-opacity:1"
       id="text3333" />
  </g>
</svg>
